<svg version="1.0" xmlns="http://www.w3.org/2000/svg" width="178.000000pt" height="178.000000pt" viewBox="0 0 178.000000 178.000000" preserveAspectRatio="xMidYMid meet">
    <g transform="translate(0.000000,178.000000) scale(0.100000,-0.100000)" fill="#000000" stroke="none">
        <path d="M727 1764 c-97 -17 -205 -59 -300 -115 -95 -55 -241 -201 -296 -296
-173 -293 -173 -633 0 -926 55 -95 201 -241 296 -296 293 -173 633 -173 926 0
95 55 241 201 296 296 173 293 173 633 0 926 -55 95 -201 241 -296 296 -193
114 -410 154 -626 115z m389 -239 c105 -35 174 -76 248 -146 l61 -57 -34 -36
-34 -35 -61 55 c-103 93 -257 154 -391 154 -236 0 -468 -169 -547 -398 -33
-96 -33 -268 0 -364 65 -188 238 -343 429 -383 156 -33 303 -5 444 86 l62 41
-40 40 -41 41 -58 -36 c-94 -56 -150 -70 -267 -65 -89 3 -111 8 -170 35 -139
66 -241 201 -267 352 -33 198 79 405 267 494 60 28 80 32 173 35 87 3 115 0
164 -17 71 -25 139 -67 185 -115 l35 -36 -40 -41 c-21 -22 -74 -72 -116 -111
l-78 -70 -35 30 c-75 67 -177 46 -224 -45 -36 -70 17 -170 99 -188 28 -6 30
-9 30 -56 0 -56 -7 -59 -83 -33 -57 19 -131 95 -146 150 -25 91 -7 168 56 235
72 77 184 100 270 55 28 -14 30 -13 75 30 51 48 51 47 -22 85 -39 21 -59 24
-150 24 -97 0 -110 -2 -163 -30 -216 -109 -269 -391 -107 -568 28 -30 73 -65
107 -82 53 -28 66 -30 163 -30 94 0 110 3 155 27 28 14 73 46 100 71 l50 44
108 -112 107 -113 -64 -60 c-241 -225 -601 -241 -873 -39 -79 59 -144 140
-194 242 -167 341 -21 749 326 911 151 70 335 81 491 29z" />
    </g>
</svg>